Coordinates
version=1
nRows=7
nColumns=40
inDegrees=yes

Units are S.I. units (second, meters, Newtons, ...)
Angles are in degrees.

endheader
time	pelvis_tilt	pelvis_list	pelvis_rotation	pelvis_tx	pelvis_ty	pelvis_tz	hip_flexion_r	hip_adduction_r	hip_rotation_r	knee_angle_r	knee_angle_r_beta	ankle_angle_r	subtalar_angle_r	mtp_angle_r	hip_flexion_l	hip_adduction_l	hip_rotation_l	knee_angle_l	knee_angle_l_beta	ankle_angle_l	subtalar_angle_l	mtp_angle_l	lumbar_extension	lumbar_bending	lumbar_rotation	arm_flex_r	arm_add_r	arm_rot_r	elbow_flex_r	pro_sup_r	wrist_flex_r	wrist_dev_r	arm_flex_l	arm_add_l	arm_rot_l	elbow_flex_l	pro_sup_l	wrist_flex_l	wrist_dev_l
     22.19342857	     -2.79211942	     -4.06966217	      5.91165143	      1.06636349	      0.92942907	      0.49829031	      8.79445810	      2.65567797	    -15.58764881	     17.91625689	     17.91625689	     13.28880214	     -5.23777302	     -3.67926887	     32.96933419	    -11.42616322	     -1.38314080	     41.14775235	     41.14775235	      9.45942822	    -18.54872616	     13.40695188	    -11.26401309	      5.05311209	      2.42267876	     15.92131853	    -19.97467952	     -7.08877006	     72.63118540	     44.81346872	      0.00000000	      0.00000000	      6.21462030	    -10.76054200	     -8.19517286	     32.12048488	     46.62227537	      0.00000000	      0.00000000
     22.20685714	     -3.00285671	     -3.99309590	      6.27472889	      1.06516252	      0.92918584	      0.49825249	      8.55202948	      2.60397943	    -15.87383630	     17.62425533	     17.62425533	     13.41104547	     -5.18649902	     -3.82482156	     33.09812874	    -10.85263467	     -1.33634061	     37.44927685	     37.44927685	      9.22801862	    -18.22302262	     12.93464437	    -11.26917368	      4.87865883	      2.31493460	     16.49411768	    -19.95162841	     -7.00960060	     74.84995290	     44.75825724	      0.00000000	      0.00000000	      5.70928173	    -10.66536021	     -8.12641165	     30.32297037	     46.59279731	      0.00000000	      0.00000000
     22.22028571	     -3.18826107	     -3.90787823	      6.56945717	      1.06394875	      0.92891578	      0.49805377	      8.32202578	      2.52610569	    -16.10071317	     17.40456085	     17.40456085	     13.52090696	     -5.15743782	     -3.99284306	     33.11338875	    -10.24888817	     -1.13278809	     33.86756630	     33.86756630	      8.84204354	    -17.64060536	     12.07277261	    -11.30994457	      4.69681755	      2.52758507	     16.84344624	    -20.08722865	     -6.96154592	     76.97584860	     44.71632088	      0.00000000	      0.00000000	      5.38861963	    -10.46833440	     -7.98849948	     28.55558032	     46.55341893	      0.00000000	      0.00000000
     22.23371429	     -3.47492068	     -4.01311624	      6.83636031	      1.06259823	      0.92828502	      0.49784022	      8.29025233	      2.64212767	    -16.25472316	     17.29302184	     17.29302184	     13.70764759	     -5.25799865	     -4.06169981	     33.44839916	     -9.84856242	     -0.71854287	     30.89165327	     30.89165327	      8.93736179	    -16.51223571	     12.31090581	    -11.19704332	      4.69503863	      2.69915154	     17.72868742	    -20.23561824	     -7.08971521	     77.72388910	     44.70292233	      0.00000000	      0.00000000	      4.67067044	    -10.21763910	     -7.93766140	     28.08178831	     46.53183301	      0.00000000	      0.00000000
     22.24714286	     -3.56781618	     -3.88376583	      7.04556629	      1.06154223	      0.92809643	      0.49741222	      7.90467798	      2.52022059	    -16.47198307	     17.00949992	     17.00949992	     13.90232736	     -5.02366175	     -4.17016611	     33.34058345	     -9.25149850	     -0.30556238	     28.00712199	     28.00712199	      8.72946223	    -15.40600626	     11.82784460	    -11.37859252	      4.47910576	      2.38106236	     18.60152803	    -19.77811771	     -6.76704942	     79.99257588	     44.63805462	      0.00000000	      0.00000000	      3.90996822	    -10.21252362	     -7.74082572	     26.76457558	     46.48339173	      0.00000000	      0.00000000
     22.26057143	     -3.75640374	     -3.86640487	      7.16423066	      1.06044656	      0.92769718	      0.49698755	      7.70658045	      2.49873232	    -16.56910469	     16.84550727	     16.84550727	     14.08810975	     -4.89503809	     -4.24296903	     33.44580477	     -8.86448620	      0.06902435	     25.69434890	     25.69434890	      8.66681190	    -13.89719066	     11.61438467	    -11.39725582	      4.33915066	      2.53467325	     19.32448267	    -19.67185981	     -6.62065893	     81.21078155	     44.60739609	      0.00000000	      0.00000000	      3.23061825	    -10.04655812	     -7.61406005	     26.08813344	     46.44765818	      0.00000000	      0.00000000
     22.27400000	     -3.95160289	     -3.89041895	      7.22857560	      1.05949992	      0.92726951	      0.49646816	      7.49186893	      2.51916755	    -16.66876877	     16.64513082	     16.64513082	     14.27723210	     -4.69780265	     -4.29301598	     33.60215519	     -8.57717264	      0.42710224	     23.90031566	     23.90031566	      8.60389651	    -12.42884043	     11.44760852	    -11.37389796	      4.25713472	      2.67923174	     20.10041384	    -19.45301427	     -6.44468975	     82.35116562	     44.57613632	      0.00000000	      0.00000000	      2.48037309	     -9.88315081	     -7.50983740	     25.54116063	     46.41460129	      0.00000000	      0.00000000
